<?xml version="1.0" standalone="no"?>
<!DOCTYPE svg PUBLIC "-//W3C//DTD SVG 20010904//EN"
 "http://www.w3.org/TR/2001/REC-SVG-20010904/DTD/svg10.dtd">
<svg version="1.0" xmlns="http://www.w3.org/2000/svg"
 width="512.000000pt" height="512.000000pt" viewBox="0 0 512.000000 512.000000"
 preserveAspectRatio="xMidYMid meet">
<metadata>
Created by potrace 1.16, written by Peter Selinger 2001-2019
</metadata>
<g transform="translate(0.000000,512.000000) scale(0.100000,-0.100000)"
fill="#FFFFFF" stroke="none">
<path d="M1977 3668 c-29 -8 -42 -19 -57 -49 -11 -21 -45 -66 -75 -99 -80 -91
-126 -228 -107 -327 5 -28 6 -56 3 -61 -10 -16 -152 -90 -217 -113 -84 -29
-297 -38 -375 -16 -76 23 -137 72 -179 146 -78 137 -92 154 -153 184 -76 38
-171 43 -214 11 -44 -33 -69 -77 -92 -166 -12 -46 -28 -94 -35 -108 -16 -30
-93 -273 -99 -315 -3 -16 -13 -68 -22 -115 -11 -59 -15 -132 -14 -240 1 -85
-1 -162 -5 -170 -12 -31 -47 -365 -42 -395 8 -41 61 -91 122 -115 l49 -19 -65
-1 c-65 0 -102 -11 -81 -24 78 -49 2843 -80 3816 -43 463 17 642 30 658 46 19
19 -83 22 -343 12 -374 -15 -381 -15 -217 19 204 42 344 79 407 107 66 29 135
94 151 142 27 80 3 220 -50 296 -16 22 -43 68 -60 103 -40 80 -87 131 -148
164 -41 21 -71 27 -201 37 -166 13 -300 33 -402 61 -266 72 -312 88 -339 116
-31 33 -120 89 -137 86 -25 -5 -110 41 -160 88 -43 39 -65 51 -111 60 -46 10
-66 21 -108 61 -31 29 -71 56 -99 65 -39 13 -53 26 -82 71 -40 63 -93 92 -166
93 -44 0 -50 3 -72 38 -47 74 -111 112 -188 112 -39 0 -57 10 -173 96 -137
101 -227 158 -260 167 -11 2 -37 0 -58 -5z m192 -144 c-11 -13 -10 -17 4 -25
9 -6 17 -14 17 -20 0 -5 -9 -4 -20 3 -23 15 -25 29 -8 46 18 18 23 15 7 -4z
m15 -94 c80 -51 145 -94 143 -96 -2 -2 -30 8 -63 21 -32 14 -72 25 -89 25 -60
0 -166 -65 -287 -177 -56 -51 -74 -54 -83 -13 -12 55 37 175 102 250 60 70 71
88 29 50 -64 -59 -100 -111 -124 -180 -17 -50 -21 -56 -16 -26 8 58 49 132
106 192 72 76 92 73 282 -46z m350 -83 c16 -12 17 -16 5 -35 -27 -43 -243
-112 -270 -85 -25 25 153 131 222 133 14 0 33 -6 43 -13z m-261 -19 c20 -6 37
-14 37 -18 0 -4 -16 -23 -35 -43 -30 -30 -43 -54 -32 -58 1 -1 45 -5 97 -9 52
-4 107 -11 123 -15 24 -6 27 -5 27 16 0 13 9 35 20 49 28 36 25 7 -5 -59 -14
-30 -23 -61 -21 -68 9 -23 70 -53 108 -53 25 0 46 8 67 26 33 27 42 50 16 40
-20 -7 -19 -1 2 24 18 21 67 27 92 11 22 -14 6 -119 -22 -149 -22 -23 -22 -24
-3 -38 28 -20 77 -17 149 8 71 24 100 21 146 -18 l31 -26 -45 -41 c-41 -35
-45 -42 -31 -55 22 -22 108 -28 146 -9 42 21 121 12 183 -21 26 -14 47 -28 47
-32 0 -4 -21 -11 -46 -15 -39 -6 -50 -3 -69 15 -18 17 -28 20 -41 12 -15 -8
-10 -13 32 -32 48 -22 50 -22 96 -6 43 15 50 15 77 1 42 -21 44 -30 15 -64
l-26 -31 39 -17 c52 -23 147 -22 173 2 18 16 26 17 68 7 26 -6 60 -15 75 -21
l28 -11 -23 -43 c-22 -39 -26 -42 -71 -45 -102 -7 -434 102 -655 214 -120 61
-198 93 -277 115 -71 19 -146 49 -210 83 -55 30 -140 70 -190 91 -117 47 -226
106 -294 158 l-55 40 38 33 c82 71 119 80 219 52z m-1535 -34 c13 -9 39 -50
58 -92 70 -154 88 -184 130 -218 44 -36 128 -74 164 -74 34 0 22 -15 -35 -43
-71 -35 -134 -35 -245 -2 -138 41 -182 34 -284 -46 -82 -65 -86 -56 -36 91 22
63 40 126 40 140 0 15 5 31 11 37 6 6 18 41 28 80 10 38 24 82 32 98 26 54 81
65 137 29z m1897 -78 c14 -46 14 -52 -3 -85 -11 -20 -27 -38 -38 -40 -27 -5
-84 29 -84 50 0 29 47 151 62 160 18 12 44 -24 63 -85z m-1755 -42 c21 -44 50
-95 65 -112 63 -75 177 -112 352 -112 164 0 297 37 415 118 60 40 68 44 68 35
0 -10 -110 -84 -167 -112 -84 -42 -191 -64 -308 -64 -267 0 -354 49 -455 256
-48 98 -54 115 -33 95 14 -12 43 -59 63 -104z m1916 30 c10 -8 13 -13 6 -9 -6
3 -30 7 -52 7 -22 0 -37 4 -34 9 9 15 59 10 80 -7z m-718 -67 l103 -68 -38
-45 c-60 -74 -109 -110 -237 -173 -116 -57 -229 -99 -326 -120 -92 -20 -251
-23 -369 -7 -63 9 -117 13 -120 10 -26 -25 254 -147 529 -229 69 -21 128 -41
133 -44 4 -4 0 -27 -8 -52 -18 -50 -35 -169 -25 -169 4 0 11 28 14 63 8 64 38
147 54 147 5 0 86 -25 180 -55 215 -69 301 -91 404 -105 176 -24 306 32 346
149 36 103 -7 192 -167 351 -111 111 -172 153 -191 134 -5 -5 -5 -35 -1 -69
15 -111 -27 -203 -112 -244 -51 -25 -181 -29 -297 -10 l-69 12 20 26 c11 14
40 58 66 96 49 75 179 241 225 288 20 22 33 27 50 22 71 -20 220 -83 286 -121
79 -45 148 -70 264 -98 61 -13 279 -123 293 -147 19 -29 -104 -238 -211 -359
-52 -59 -145 -179 -184 -238 l-15 -23 -215 25 c-240 28 -530 52 -753 62 -89 4
-150 11 -155 18 -4 6 -32 65 -63 131 -84 182 -97 198 -186 235 -110 46 -516
181 -533 178 -8 -2 107 -46 255 -97 149 -52 287 -103 308 -113 31 -15 44 -32
67 -81 31 -67 110 -255 110 -260 0 -10 -729 50 -895 74 -172 24 -204 34 -209
62 -13 61 -14 122 -5 227 14 166 20 183 71 206 23 10 63 35 88 55 25 20 55 41
67 47 34 18 100 14 198 -13 145 -40 189 -35 295 39 44 30 48 31 195 37 133 5
160 9 237 36 111 38 214 103 325 203 48 43 90 78 93 77 3 -1 51 -33 108 -70z
m791 -41 l64 -65 -39 -16 c-35 -16 -134 -33 -134 -24 0 2 7 26 15 53 8 27 15
64 15 83 0 18 4 33 8 33 4 0 36 -29 71 -64z m139 -66 c45 -27 40 -34 -5 -8
-47 27 -49 28 -37 28 5 0 24 -9 42 -20z m182 -106 c49 -20 52 -34 6 -34 -19 0
-45 -9 -60 -21 -32 -25 -91 -28 -114 -6 -13 14 -13 18 -1 33 35 42 104 54 169
28z m-1132 -26 c-9 -13 -46 -67 -84 -120 -38 -53 -77 -110 -86 -127 -22 -39
-28 -39 -211 4 -179 42 -197 50 -131 58 108 12 390 124 488 192 30 22 40 18
24 -7z m492 -171 c160 -183 171 -289 39 -362 -106 -57 -208 -47 -544 56 -110
33 -208 63 -217 66 -23 7 -22 8 3 49 24 39 30 40 148 18 117 -22 261 -16 317
14 85 44 124 114 124 225 l0 57 27 -17 c14 -10 61 -57 103 -106z m1002 -14
c10 -9 18 -24 18 -35 0 -15 -8 -18 -52 -18 -74 0 -89 12 -58 44 27 30 65 33
92 9z m-2212 -32 c96 -8 170 -21 255 -45 66 -19 146 -40 178 -47 32 -7 60 -16
63 -20 2 -5 -8 -22 -23 -39 l-28 -30 -170 49 c-193 56 -405 129 -420 144 -7 7
-7 8 0 4 6 -3 71 -10 145 -16z m1981 -92 c110 -34 129 -43 123 -57 -24 -58
-44 -140 -44 -180 0 -86 58 -142 145 -142 44 0 64 10 134 67 61 50 111 78 156
87 17 3 114 10 217 16 200 11 326 29 417 60 50 17 58 17 79 4 29 -19 79 -97
94 -148 11 -35 10 -40 -10 -56 -28 -23 -221 -85 -342 -110 -395 -81 -872 -119
-1251 -100 -187 9 -269 17 -269 26 0 14 62 99 162 222 85 105 133 175 169 246
62 124 58 118 75 112 8 -3 73 -24 145 -47z m621 -8 c117 -27 200 -40 350 -55
200 -21 194 -44 -20 -71 -64 -8 -198 -19 -297 -24 -207 -10 -224 -15 -331 -97
-80 -61 -119 -69 -155 -33 -19 19 -21 30 -16 83 2 33 13 78 23 99 l18 38 117
-6 116 -7 52 46 c28 25 54 46 56 46 2 0 42 -9 87 -19z m-3242 -411 c283 -33
632 -59 984 -75 368 -16 662 -41 966 -81 262 -34 506 -45 780 -34 518 21 994
99 1199 197 45 22 84 37 86 34 3 -2 5 -13 5 -23 0 -47 -166 -110 -431 -162
-386 -77 -622 -99 -1034 -99 -324 0 -448 8 -770 48 -244 31 -489 51 -770 65
-488 23 -1036 70 -1238 107 -89 15 -111 29 -88 57 10 11 22 11 79 -1 37 -7
141 -22 232 -33z m-130 -64 c190 -28 793 -76 1200 -96 254 -13 485 -33 694
-60 304 -41 447 -50 751 -51 325 -1 462 8 740 47 326 46 566 101 695 159 44
20 85 33 90 30 16 -10 12 -51 -8 -67 -57 -51 -201 -96 -489 -153 -123 -25
-240 -54 -261 -64 -20 -11 -61 -47 -90 -80 -93 -107 -91 -106 -1377 -105 -925
2 -1065 4 -1370 23 -481 30 -663 54 -745 96 -52 27 -53 32 -40 182 7 76 16
145 21 154 7 14 16 15 46 9 21 -5 85 -16 143 -24z"/>
<path d="M1722 2200 c0 -19 2 -27 5 -17 2 9 2 25 0 35 -3 9 -5 1 -5 -18z"/>
<path d="M2443 2184 c-9 -23 13 -40 32 -24 12 10 13 16 4 26 -15 18 -28 18
-36 -2z"/>
<path d="M3868 2528 c9 -9 15 -9 24 0 9 9 7 12 -12 12 -19 0 -21 -3 -12 -12z"/>
<path d="M3950 2500 c0 -5 4 -10 9 -10 6 0 13 5 16 10 3 6 -1 10 -9 10 -9 0
-16 -4 -16 -10z"/>
<path d="M3800 2481 c0 -6 5 -13 10 -16 6 -3 10 1 10 9 0 9 -4 16 -10 16 -5 0
-10 -4 -10 -9z"/>
</g>
</svg>